Coordinates
version=1
nRows=8
nColumns=40
inDegrees=yes

Units are S.I. units (second, meters, Newtons, ...)
If the header above contains a line with 'inDegrees', this indicates whether rotational values are in degrees (yes) or radians (no).

endheader
time	pelvis_tilt	pelvis_list	pelvis_rotation	pelvis_tx	pelvis_ty	pelvis_tz	hip_flexion_r	hip_adduction_r	hip_rotation_r	knee_angle_r	knee_angle_r_beta	ankle_angle_r	subtalar_angle_r	mtp_angle_r	hip_flexion_l	hip_adduction_l	hip_rotation_l	knee_angle_l	knee_angle_l_beta	ankle_angle_l	subtalar_angle_l	mtp_angle_l	lumbar_extension	lumbar_bending	lumbar_rotation	arm_flex_r	arm_add_r	arm_rot_r	elbow_flex_r	pro_sup_r	wrist_flex_r	wrist_dev_r	arm_flex_l	arm_add_l	arm_rot_l	elbow_flex_l	pro_sup_l	wrist_flex_l	wrist_dev_l
      3.15000000	     18.81850700	     -9.39077123	     -6.58430756	     -0.31360216	      0.97076403	     -1.03445019	     28.68642284	      5.77589148	     -8.45576405	      6.14256901	      0.10720805	     -1.93424957	      0.00000000	      0.00000000	      7.25896304	    -10.98057543	    -15.34018079	     56.40022374	      0.98436960	     17.63050573	      0.00000000	      0.00000000	    -24.70735345	      2.26746341	      8.97575828	     89.07897250	    -22.84849518	     58.39526412	     35.39680240	     85.62585197	      0.00000000	      0.00000000	     89.81673420	    -22.52158576	     59.16404287	     44.39580573	     86.93564360	      0.00000000	      0.00000000
      3.15500000	     18.86819412	     -9.38319317	     -6.65309186	     -0.31391682	      0.96991425	     -1.03426875	     28.69555429	      5.79951966	     -8.29012236	      6.10922739	      0.10662613	     -1.99809249	      0.00000000	      0.00000000	      7.30571673	    -11.00711854	    -15.40552393	     56.61235031	      0.98807191	     17.76213595	      0.00000000	      0.00000000	    -24.80744515	      2.20700891	      9.02595705	     89.11066635	    -22.77986032	     58.24187603	     35.36930195	     85.87706385	      0.00000000	      0.00000000	     89.81711618	    -22.55049077	     59.09560317	     44.36869162	     86.85962269	      0.00000000	      0.00000000
      3.16000000	     18.83823634	     -9.44474988	     -6.60329228	     -0.31430078	      0.96880443	     -1.03425752	     28.82637527	      5.83147992	     -8.33597606	      6.13540215	      0.10708297	     -1.97512799	      0.00000000	      0.00000000	      7.52296013	    -11.09181077	    -15.25094931	     56.90642943	      0.99320456	     17.90889432	      0.00000000	      0.00000000	    -24.83616731	      2.27244206	      8.98848728	     89.14299261	    -22.68702044	     58.15251262	     35.26640932	     85.88348650	      0.00000000	      0.00000000	     89.81931136	    -22.57555623	     59.09178598	     44.37186309	     86.88676283	      0.00000000	      0.00000000
      3.16500000	     18.96001912	     -9.47314997	     -6.65381199	     -0.31450636	      0.96793240	     -1.03412539	     28.76414947	      5.88625134	     -8.32109704	      6.11393336	      0.10670827	     -1.92024690	      0.00000000	      0.00000000	      7.47114184	    -11.14067234	    -15.30027678	     57.10241568	      0.99662516	     18.09421942	      0.00000000	      0.00000000	    -25.00445602	      2.23519834	      9.06338439	     89.18701530	    -22.68755180	     58.14266059	     35.31858519	     85.83624331	      0.00000000	      0.00000000	     89.82134153	    -22.59691064	     58.97799134	     44.41336431	     86.84610772	      0.00000000	      0.00000000
      3.17000000	     18.89605656	     -9.46994085	     -6.65824417	     -0.31501082	      0.96704852	     -1.03404108	     28.90505905	      5.89864297	     -8.41027916	      6.08020545	      0.10611960	     -1.94723847	      0.00000000	      0.00000000	      7.71281434	    -11.16776747	    -15.22702425	     57.35987507	      1.00111868	     18.17277144	      0.00000000	      0.00000000	    -25.01059994	      2.21606788	      9.04367634	     89.19158789	    -22.58878595	     57.97188114	     35.21180004	     85.88359445	      0.00000000	      0.00000000	     89.82323756	    -22.65362091	     58.96094572	     44.48788053	     86.89568225	      0.00000000	      0.00000000
      3.17500000	     19.12787686	     -9.46372525	     -6.75333376	     -0.31511085	      0.96634560	     -1.03383215	     28.72483597	      5.93171258	     -8.36118711	      6.08956245	      0.10628291	     -1.89470428	      0.00000000	      0.00000000	      7.49541405	    -11.18048839	    -15.37743560	     57.52048981	      1.00392193	     18.34683711	      0.00000000	      0.00000000	    -25.26991011	      2.11618916	      9.14515284	     89.22621793	    -22.53235323	     57.93482951	     35.19556295	     85.80857325	      0.00000000	      0.00000000	     89.82380244	    -22.67882649	     58.85695832	     44.47429329	     86.87101838	      0.00000000	      0.00000000
      3.18000000	     19.11216311	     -9.49173121	     -6.72892427	     -0.31536360	      0.96526848	     -1.03378476	     28.81910012	      5.94727381	     -8.41992911	      6.07910146	      0.10610034	     -1.85225553	      0.00000000	      0.00000000	      7.69528117	    -11.23131787	    -15.24394218	     57.84784326	      1.00963533	     18.48668367	      0.00000000	      0.00000000	    -25.30273562	      2.13129368	      9.11545784	     89.24376289	    -22.46283591	     57.82960523	     35.14758818	     85.89498808	      0.00000000	      0.00000000	     89.82584370	    -22.72867959	     58.80926270	     44.54129924	     86.84200670	      0.00000000	      0.00000000
      3.18500000	     19.00839364	     -9.50955826	     -6.67727424	     -0.31586817	      0.96423100	     -1.03372938	     29.03043975	      5.94379344	     -8.49263092	      6.10515715	      0.10655509	     -1.98569900	      0.00000000	      0.00000000	      7.99991100	    -11.27790988	    -15.10150024	     58.10756757	      1.01416837	     18.59335823	      0.00000000	      0.00000000	    -25.26160484	      2.15518183	      9.06353821	     89.25753006	    -22.41653089	     57.73419107	     35.16623125	     85.79066727	      0.00000000	      0.00000000	     89.82683935	    -22.73941159	     58.70418650	     44.50548572	     86.88363154	      0.00000000	      0.00000000
